<?xml version="1.0" encoding="UTF-8" standalone="no"?>
<svg
   xmlns:dc="http://purl.org/dc/elements/1.1/"
   xmlns:cc="http://creativecommons.org/ns#"
   xmlns:rdf="http://www.w3.org/1999/02/22-rdf-syntax-ns#"
   xmlns:svg="http://www.w3.org/2000/svg"
   xmlns="http://www.w3.org/2000/svg"
   xmlns:sodipodi="http://sodipodi.sourceforge.net/DTD/sodipodi-0.dtd"
   xmlns:inkscape="http://www.inkscape.org/namespaces/inkscape"
   width="122.72537mm"
   height="107.71496mm"
   viewBox="0 0 122.72537 107.71496"
   version="1.1"
   id="svg8"
   inkscape:version="1.0.1 (3bc2e813f5, 2020-09-07)"
   sodipodi:docname="black-and-white-heart-2.svg">
  <defs
     id="defs2" />
  <sodipodi:namedview
     id="base"
     pagecolor="#ffffff"
     bordercolor="#666666"
     borderopacity="1.0"
     inkscape:pageopacity="0.0"
     inkscape:pageshadow="2"
     inkscape:zoom="1.4142136"
     inkscape:cx="168.47792"
     inkscape:cy="244.6976"
     inkscape:document-units="mm"
     inkscape:current-layer="layer1"
     inkscape:document-rotation="0"
     showgrid="false"
     inkscape:window-width="1920"
     inkscape:window-height="1134"
     inkscape:window-x="-8"
     inkscape:window-y="-8"
     inkscape:window-maximized="1" />
  <metadata
     id="metadata5">
    <rdf:RDF>
      <cc:Work
         rdf:about="">
        <dc:format>image/svg+xml</dc:format>
        <dc:type
           rdf:resource="http://purl.org/dc/dcmitype/StillImage" />
        <dc:title></dc:title>
      </cc:Work>
    </rdf:RDF>
  </metadata>
  <g
     inkscape:label="Layer 1"
     inkscape:groupmode="layer"
     id="layer1"
     transform="translate(-42.013689,-73.969755)">
    <path
       id="path51"
       style="fill:none;stroke:#000000;stroke-width:18.8976"
       d="m 281.12305,289.01953 c -28.84845,0 -57.69757,11.05304 -79.80274,33.1582 -44.21033,44.21034 -44.21034,115.39318 0,159.60352 10.17058,10.17056 20.34115,20.34116 30.51172,30.51172 l 160.9375,160.9375 151.85352,-155.93945 c 3.79309,-3.80099 7.41729,-7.44073 11.38476,-11.40821 0,0 16.06604,-16.06799 24.09961,-24.10156 44.21035,-44.21034 44.21035,-115.39318 0,-159.60352 -44.21034,-44.21032 -115.39317,-44.21032 -159.60351,0 0,0 -19.70829,19.61955 -29.4961,29.4961 l -0.67383,0.67969 -0.38476,0.38867 -29.02539,-30.56446 c -22.10518,-22.10516 -50.95234,-33.1582 -79.80078,-33.1582 z"
       transform="scale(0.26458333)" />
  </g>
</svg>
